<svg xmlns="http://www.w3.org/2000/svg" xmlns:xlink="http://www.w3.org/1999/xlink" width="1640" zoomAndPan="magnify" viewBox="0 0 1230 693.000001" height="924" preserveAspectRatio="xMidYMid meet" version="1.0"><defs><g/><clipPath id="7fb373e7eb"><path d="M 0.886719 0 L 1229.113281 0 L 1229.113281 692 L 0.886719 692 Z M 0.886719 0 " clip-rule="nonzero"/></clipPath><clipPath id="cfae2c54a3"><path d="M 281.570312 11.824219 L 960.839844 11.824219 L 960.839844 691.09375 L 281.570312 691.09375 Z M 281.570312 11.824219 " clip-rule="nonzero"/></clipPath><clipPath id="018662bca4"><path d="M 0.886719 296.628906 L 1229.113281 296.628906 L 1229.113281 393.824219 L 0.886719 393.824219 Z M 0.886719 296.628906 " clip-rule="nonzero"/></clipPath></defs><g clip-path="url(#7fb373e7eb)"><path fill="#ffffff" d="M 0.886719 0 L 1229.113281 0 L 1229.113281 692 L 0.886719 692 Z M 0.886719 0 " fill-opacity="1" fill-rule="nonzero"/><path fill="#ffffff" d="M 0.886719 0 L 1229.113281 0 L 1229.113281 692 L 0.886719 692 Z M 0.886719 0 " fill-opacity="1" fill-rule="nonzero"/></g><g clip-path="url(#cfae2c54a3)"><path fill="#663333" d="M 960.992188 351.535156 C 960.992188 357.09375 960.859375 362.652344 960.585938 368.203125 C 960.3125 373.757812 959.902344 379.300781 959.359375 384.832031 C 958.8125 390.363281 958.132812 395.882812 957.316406 401.378906 C 956.5 406.878906 955.550781 412.355469 954.464844 417.808594 C 953.382812 423.261719 952.164062 428.683594 950.8125 434.078125 C 949.460938 439.46875 947.980469 444.828125 946.367188 450.148438 C 944.753906 455.46875 943.007812 460.746094 941.136719 465.980469 C 939.261719 471.214844 937.261719 476.398438 935.136719 481.535156 C 933.007812 486.671875 930.753906 491.753906 928.378906 496.78125 C 926 501.804688 923.503906 506.769531 920.882812 511.671875 C 918.261719 516.578125 915.519531 521.414062 912.664062 526.179688 C 909.804688 530.949219 906.832031 535.644531 903.742188 540.269531 C 900.652344 544.890625 897.453125 549.433594 894.140625 553.898438 C 890.828125 558.367188 887.410156 562.746094 883.882812 567.046875 C 880.355469 571.34375 876.726562 575.550781 872.992188 579.671875 C 869.257812 583.789062 865.425781 587.816406 861.496094 591.746094 C 857.5625 595.679688 853.539062 599.511719 849.417969 603.242188 C 845.300781 606.976562 841.089844 610.609375 836.792969 614.136719 C 832.496094 617.660156 828.113281 621.082031 823.648438 624.394531 C 819.183594 627.703125 814.640625 630.90625 810.015625 633.992188 C 805.394531 637.082031 800.699219 640.054688 795.929688 642.914062 C 791.160156 645.773438 786.324219 648.511719 781.421875 651.132812 C 776.519531 653.753906 771.554688 656.253906 766.527344 658.628906 C 761.503906 661.007812 756.421875 663.257812 751.285156 665.386719 C 746.148438 667.515625 740.960938 669.515625 735.726562 671.386719 C 730.492188 673.261719 725.214844 675.003906 719.894531 676.617188 C 714.574219 678.230469 709.21875 679.714844 703.824219 681.066406 C 698.433594 682.414062 693.011719 683.632812 687.558594 684.71875 C 682.105469 685.804688 676.628906 686.753906 671.128906 687.570312 C 665.628906 688.382812 660.113281 689.066406 654.582031 689.609375 C 649.046875 690.15625 643.503906 690.5625 637.953125 690.835938 C 632.398438 691.109375 626.84375 691.246094 621.28125 691.246094 C 615.722656 691.246094 610.167969 691.109375 604.613281 690.835938 C 599.0625 690.5625 593.519531 690.15625 587.984375 689.609375 C 582.453125 689.066406 576.9375 688.382812 571.4375 687.570312 C 565.9375 686.753906 560.460938 685.804688 555.007812 684.71875 C 549.554688 683.632812 544.132812 682.414062 538.738281 681.066406 C 533.347656 679.714844 527.988281 678.230469 522.671875 676.617188 C 517.351562 675.003906 512.074219 673.261719 506.835938 671.386719 C 501.601562 669.515625 496.417969 667.515625 491.28125 665.386719 C 486.144531 663.257812 481.0625 661.007812 476.039062 658.628906 C 471.011719 656.253906 466.046875 653.753906 461.144531 651.132812 C 456.242188 648.511719 451.40625 645.773438 446.636719 642.914062 C 441.867188 640.054688 437.171875 637.082031 432.550781 633.992188 C 427.925781 630.90625 423.382812 627.703125 418.917969 624.394531 C 414.453125 621.082031 410.070312 617.660156 405.773438 614.136719 C 401.476562 610.609375 397.265625 606.976562 393.148438 603.242188 C 389.027344 599.511719 385.003906 595.679688 381.070312 591.746094 C 377.140625 587.816406 373.308594 583.789062 369.574219 579.671875 C 365.839844 575.550781 362.210938 571.34375 358.683594 567.046875 C 355.15625 562.746094 351.734375 558.367188 348.425781 553.898438 C 345.113281 549.433594 341.914062 544.890625 338.824219 540.269531 C 335.734375 535.644531 332.761719 530.949219 329.902344 526.179688 C 327.042969 521.414062 324.304688 516.578125 321.683594 511.671875 C 319.0625 506.769531 316.566406 501.804688 314.1875 496.78125 C 311.8125 491.753906 309.558594 486.671875 307.429688 481.535156 C 305.304688 476.398438 303.304688 471.214844 301.429688 465.980469 C 299.558594 460.746094 297.8125 455.46875 296.199219 450.148438 C 294.585938 444.828125 293.101562 439.46875 291.753906 434.078125 C 290.402344 428.683594 289.183594 423.261719 288.097656 417.808594 C 287.015625 412.355469 286.066406 406.878906 285.25 401.378906 C 284.433594 395.882812 283.753906 390.363281 283.207031 384.832031 C 282.664062 379.300781 282.253906 373.757812 281.980469 368.203125 C 281.707031 362.652344 281.570312 357.09375 281.570312 351.535156 C 281.570312 345.976562 281.707031 340.417969 281.980469 334.867188 C 282.253906 329.3125 282.664062 323.769531 283.207031 318.238281 C 283.753906 312.703125 284.433594 307.1875 285.25 301.6875 C 286.066406 296.1875 287.015625 290.714844 288.097656 285.261719 C 289.183594 279.808594 290.402344 274.382812 291.753906 268.992188 C 293.101562 263.597656 294.585938 258.242188 296.199219 252.921875 C 297.8125 247.601562 299.558594 242.324219 301.429688 237.089844 C 303.304688 231.855469 305.304688 226.667969 307.429688 221.53125 C 309.558594 216.394531 311.8125 211.316406 314.1875 206.289062 C 316.566406 201.261719 319.0625 196.300781 321.683594 191.394531 C 324.304688 186.492188 327.042969 181.65625 329.902344 176.886719 C 332.761719 172.121094 335.734375 167.425781 338.824219 162.800781 C 341.914062 158.179688 345.113281 153.632812 348.425781 149.167969 C 351.734375 144.703125 355.15625 140.320312 358.683594 136.023438 C 362.210938 131.726562 365.839844 127.519531 369.574219 123.398438 C 373.308594 119.28125 377.140625 115.253906 381.070312 111.324219 C 385.003906 107.390625 389.027344 103.558594 393.148438 99.824219 C 397.265625 96.09375 401.476562 92.460938 405.773438 88.933594 C 410.070312 85.40625 414.453125 81.988281 418.917969 78.675781 C 423.382812 75.363281 427.925781 72.164062 432.550781 69.074219 C 437.171875 65.988281 441.867188 63.011719 446.636719 60.15625 C 451.40625 57.296875 456.242188 54.558594 461.144531 51.9375 C 466.046875 49.316406 471.011719 46.816406 476.039062 44.441406 C 481.0625 42.0625 486.144531 39.808594 491.28125 37.683594 C 496.417969 35.554688 501.601562 33.554688 506.835938 31.683594 C 512.074219 29.808594 517.351562 28.066406 522.671875 26.453125 C 527.988281 24.835938 533.347656 23.355469 538.738281 22.003906 C 544.132812 20.652344 549.554688 19.4375 555.007812 18.351562 C 560.460938 17.265625 565.9375 16.316406 571.4375 15.5 C 576.9375 14.683594 582.453125 14.003906 587.984375 13.460938 C 593.519531 12.914062 599.0625 12.503906 604.613281 12.234375 C 610.167969 11.960938 615.722656 11.824219 621.28125 11.824219 C 626.84375 11.824219 632.398438 11.960938 637.953125 12.234375 C 643.503906 12.503906 649.046875 12.914062 654.582031 13.460938 C 660.113281 14.003906 665.628906 14.683594 671.128906 15.5 C 676.628906 16.316406 682.105469 17.265625 687.558594 18.351562 C 693.011719 19.4375 698.433594 20.652344 703.824219 22.003906 C 709.21875 23.355469 714.574219 24.835938 719.894531 26.453125 C 725.214844 28.066406 730.492188 29.808594 735.726562 31.683594 C 740.960938 33.554688 746.148438 35.554688 751.285156 37.683594 C 756.421875 39.808594 761.503906 42.0625 766.527344 44.441406 C 771.554688 46.816406 776.519531 49.316406 781.421875 51.9375 C 786.324219 54.558594 791.160156 57.296875 795.929688 60.15625 C 800.699219 63.011719 805.394531 65.988281 810.015625 69.074219 C 814.640625 72.164062 819.183594 75.363281 823.648438 78.675781 C 828.113281 81.988281 832.496094 85.40625 836.792969 88.933594 C 841.089844 92.460938 845.300781 96.09375 849.417969 99.824219 C 853.539062 103.558594 857.5625 107.390625 861.496094 111.324219 C 865.425781 115.253906 869.257812 119.28125 872.992188 123.398438 C 876.726562 127.519531 880.355469 131.726562 883.882812 136.023438 C 887.410156 140.320312 890.828125 144.703125 894.140625 149.167969 C 897.453125 153.632812 900.652344 158.179688 903.742188 162.800781 C 906.832031 167.425781 909.804688 172.121094 912.664062 176.886719 C 915.519531 181.65625 918.261719 186.492188 920.882812 191.394531 C 923.503906 196.300781 926 201.261719 928.378906 206.289062 C 930.753906 211.316406 933.007812 216.394531 935.136719 221.53125 C 937.261719 226.667969 939.261719 231.855469 941.136719 237.089844 C 943.007812 242.324219 944.753906 247.601562 946.367188 252.921875 C 947.980469 258.242188 949.460938 263.597656 950.8125 268.992188 C 952.164062 274.382812 953.382812 279.808594 954.464844 285.261719 C 955.550781 290.714844 956.5 296.1875 957.316406 301.6875 C 958.132812 307.1875 958.8125 312.703125 959.359375 318.238281 C 959.902344 323.769531 960.3125 329.3125 960.585938 334.867188 C 960.859375 340.417969 960.992188 345.976562 960.992188 351.535156 Z M 960.992188 351.535156 " fill-opacity="1" fill-rule="nonzero"/></g><path fill="#fffefa" d="M 926.046875 351.535156 C 926.046875 356.523438 925.925781 361.507812 925.679688 366.488281 C 925.4375 371.46875 925.070312 376.441406 924.578125 381.40625 C 924.089844 386.371094 923.480469 391.320312 922.75 396.253906 C 922.015625 401.1875 921.164062 406.097656 920.191406 410.992188 C 919.21875 415.882812 918.125 420.75 916.914062 425.585938 C 915.703125 430.425781 914.371094 435.230469 912.925781 440.003906 C 911.476562 444.777344 909.914062 449.511719 908.230469 454.207031 C 906.550781 458.902344 904.757812 463.554688 902.847656 468.164062 C 900.941406 472.769531 898.917969 477.328125 896.785156 481.839844 C 894.652344 486.347656 892.414062 490.800781 890.0625 495.199219 C 887.710938 499.597656 885.253906 503.9375 882.6875 508.214844 C 880.125 512.492188 877.457031 516.707031 874.683594 520.851562 C 871.914062 525 869.042969 529.078125 866.070312 533.082031 C 863.101562 537.089844 860.035156 541.019531 856.867188 544.875 C 853.703125 548.730469 850.449219 552.507812 847.097656 556.203125 C 843.75 559.898438 840.3125 563.507812 836.785156 567.035156 C 833.257812 570.5625 829.644531 574 825.949219 577.351562 C 822.253906 580.699219 818.480469 583.957031 814.625 587.121094 C 810.769531 590.285156 806.835938 593.351562 802.832031 596.324219 C 798.824219 599.296875 794.75 602.167969 790.601562 604.9375 C 786.453125 607.707031 782.242188 610.375 777.964844 612.941406 C 773.683594 615.503906 769.347656 617.960938 764.949219 620.3125 C 760.550781 622.664062 756.09375 624.90625 751.585938 627.039062 C 747.078125 629.171875 742.519531 631.191406 737.910156 633.101562 C 733.304688 635.007812 728.652344 636.804688 723.953125 638.484375 C 719.257812 640.164062 714.523438 641.726562 709.75 643.175781 C 704.976562 644.625 700.171875 645.953125 695.335938 647.164062 C 690.496094 648.378906 685.632812 649.46875 680.738281 650.441406 C 675.847656 651.417969 670.933594 652.269531 666 653 C 661.066406 653.734375 656.117188 654.34375 651.15625 654.832031 C 646.191406 655.320312 641.21875 655.6875 636.238281 655.933594 C 631.253906 656.175781 626.269531 656.300781 621.28125 656.300781 C 616.296875 656.300781 611.308594 656.175781 606.328125 655.933594 C 601.347656 655.6875 596.375 655.320312 591.410156 654.832031 C 586.445312 654.34375 581.5 653.734375 576.566406 653 C 571.632812 652.269531 566.71875 651.417969 561.828125 650.441406 C 556.933594 649.46875 552.070312 648.378906 547.230469 647.164062 C 542.394531 645.953125 537.585938 644.625 532.8125 643.175781 C 528.042969 641.726562 523.308594 640.164062 518.609375 638.484375 C 513.914062 636.804688 509.261719 635.007812 504.65625 633.101562 C 500.046875 631.191406 495.488281 629.171875 490.980469 627.039062 C 486.46875 624.90625 482.015625 622.664062 477.617188 620.3125 C 473.21875 617.960938 468.878906 615.503906 464.601562 612.941406 C 460.324219 610.375 456.113281 607.707031 451.964844 604.9375 C 447.816406 602.167969 443.742188 599.296875 439.734375 596.324219 C 435.730469 593.351562 431.796875 590.285156 427.941406 587.121094 C 424.085938 583.957031 420.3125 580.699219 416.617188 577.351562 C 412.917969 574 409.308594 570.5625 405.78125 567.035156 C 402.253906 563.507812 398.816406 559.898438 395.46875 556.203125 C 392.117188 552.507812 388.859375 548.730469 385.695312 544.875 C 382.53125 541.019531 379.464844 537.089844 376.492188 533.082031 C 373.523438 529.078125 370.652344 525 367.878906 520.851562 C 365.109375 516.707031 362.441406 512.492188 359.878906 508.214844 C 357.3125 503.9375 354.855469 499.597656 352.503906 495.199219 C 350.152344 490.800781 347.910156 486.347656 345.777344 481.839844 C 343.644531 477.328125 341.625 472.769531 339.71875 468.164062 C 337.808594 463.554688 336.015625 458.902344 334.332031 454.207031 C 332.652344 449.511719 331.089844 444.777344 329.640625 440.003906 C 328.195312 435.230469 326.863281 430.425781 325.652344 425.585938 C 324.441406 420.75 323.347656 415.882812 322.375 410.992188 C 321.402344 406.097656 320.546875 401.1875 319.816406 396.253906 C 319.085938 391.320312 318.476562 386.371094 317.984375 381.40625 C 317.496094 376.441406 317.128906 371.46875 316.886719 366.488281 C 316.640625 361.507812 316.519531 356.523438 316.519531 351.535156 C 316.519531 346.546875 316.640625 341.5625 316.886719 336.582031 C 317.128906 331.597656 317.496094 326.625 317.984375 321.664062 C 318.476562 316.699219 319.085938 311.75 319.816406 306.816406 C 320.546875 301.882812 321.402344 296.96875 322.375 292.078125 C 323.347656 287.1875 324.441406 282.320312 325.652344 277.484375 C 326.863281 272.644531 328.195312 267.839844 329.640625 263.066406 C 331.089844 258.292969 332.652344 253.558594 334.332031 248.863281 C 336.015625 244.167969 337.808594 239.515625 339.71875 234.90625 C 341.625 230.296875 343.644531 225.738281 345.777344 221.230469 C 347.910156 216.722656 350.152344 212.269531 352.503906 207.871094 C 354.855469 203.472656 357.3125 199.132812 359.878906 194.855469 C 362.441406 190.578125 365.109375 186.363281 367.878906 182.214844 C 370.652344 178.070312 373.523438 173.992188 376.492188 169.988281 C 379.464844 165.980469 382.53125 162.050781 385.695312 158.195312 C 388.859375 154.339844 392.117188 150.5625 395.46875 146.867188 C 398.816406 143.171875 402.253906 139.558594 405.78125 136.035156 C 409.308594 132.507812 412.917969 129.070312 416.617188 125.71875 C 420.3125 122.371094 424.085938 119.113281 427.941406 115.949219 C 431.796875 112.785156 435.730469 109.714844 439.734375 106.746094 C 443.742188 103.773438 447.816406 100.902344 451.964844 98.132812 C 456.113281 95.359375 460.324219 92.695312 464.601562 90.128906 C 468.878906 87.566406 473.21875 85.109375 477.617188 82.757812 C 482.015625 80.40625 486.46875 78.164062 490.980469 76.03125 C 495.488281 73.898438 500.046875 71.878906 504.65625 69.96875 C 509.261719 68.058594 513.914062 66.265625 518.609375 64.585938 C 523.308594 62.90625 528.042969 61.339844 532.8125 59.894531 C 537.585938 58.445312 542.394531 57.117188 547.230469 55.902344 C 552.070312 54.691406 556.933594 53.597656 561.828125 52.625 C 566.71875 51.652344 571.632812 50.800781 576.566406 50.070312 C 581.5 49.335938 586.445312 48.726562 591.410156 48.238281 C 596.375 47.75 601.347656 47.382812 606.328125 47.136719 C 611.308594 46.890625 616.296875 46.769531 621.28125 46.769531 C 626.269531 46.769531 631.253906 46.890625 636.238281 47.136719 C 641.21875 47.382812 646.191406 47.75 651.15625 48.238281 C 656.117188 48.726562 661.066406 49.335938 666 50.070312 C 670.933594 50.800781 675.847656 51.652344 680.738281 52.625 C 685.632812 53.597656 690.496094 54.691406 695.335938 55.902344 C 700.171875 57.117188 704.976562 58.445312 709.75 59.894531 C 714.523438 61.339844 719.257812 62.90625 723.953125 64.585938 C 728.652344 66.265625 733.304688 68.058594 737.910156 69.96875 C 742.519531 71.878906 747.078125 73.898438 751.585938 76.03125 C 756.09375 78.164062 760.550781 80.40625 764.949219 82.757812 C 769.347656 85.109375 773.683594 87.566406 777.964844 90.128906 C 782.242188 92.695312 786.453125 95.359375 790.601562 98.132812 C 794.75 100.902344 798.824219 103.773438 802.832031 106.746094 C 806.835938 109.714844 810.769531 112.785156 814.625 115.949219 C 818.480469 119.113281 822.253906 122.371094 825.949219 125.71875 C 829.644531 129.070312 833.257812 132.507812 836.785156 136.035156 C 840.3125 139.558594 843.75 143.171875 847.097656 146.867188 C 850.449219 150.5625 853.703125 154.339844 856.867188 158.195312 C 860.035156 162.050781 863.101562 165.980469 866.070312 169.988281 C 869.042969 173.992188 871.914062 178.070312 874.683594 182.214844 C 877.457031 186.363281 880.125 190.578125 882.6875 194.855469 C 885.253906 199.132812 887.710938 203.472656 890.0625 207.871094 C 892.414062 212.269531 894.652344 216.722656 896.785156 221.230469 C 898.917969 225.738281 900.941406 230.296875 902.847656 234.90625 C 904.757812 239.515625 906.550781 244.167969 908.230469 248.863281 C 909.914062 253.558594 911.476562 258.292969 912.925781 263.066406 C 914.371094 267.839844 915.703125 272.644531 916.914062 277.484375 C 918.125 282.320312 919.21875 287.1875 920.191406 292.078125 C 921.164062 296.96875 922.015625 301.882812 922.75 306.816406 C 923.480469 311.75 924.089844 316.699219 924.578125 321.664062 C 925.070312 326.625 925.4375 331.597656 925.679688 336.582031 C 925.925781 341.5625 926.046875 346.546875 926.046875 351.535156 Z M 926.046875 351.535156 " fill-opacity="1" fill-rule="nonzero"/><path fill="#8b008b" d="M 874.035156 351.535156 C 874.035156 355.671875 873.933594 359.804688 873.730469 363.9375 C 873.527344 368.066406 873.222656 372.191406 872.816406 376.308594 C 872.410156 380.425781 871.90625 384.527344 871.296875 388.621094 C 870.691406 392.710938 869.984375 396.785156 869.179688 400.84375 C 868.371094 404.902344 867.464844 408.9375 866.460938 412.949219 C 865.453125 416.960938 864.351562 420.945312 863.152344 424.90625 C 861.949219 428.863281 860.652344 432.789062 859.257812 436.683594 C 857.867188 440.578125 856.378906 444.4375 854.792969 448.257812 C 853.210938 452.078125 851.535156 455.859375 849.765625 459.601562 C 848 463.339844 846.140625 467.03125 844.191406 470.679688 C 842.238281 474.328125 840.203125 477.925781 838.074219 481.476562 C 835.949219 485.023438 833.734375 488.515625 831.4375 491.957031 C 829.140625 495.394531 826.757812 498.777344 824.292969 502.097656 C 821.832031 505.421875 819.285156 508.679688 816.664062 511.878906 C 814.039062 515.074219 811.335938 518.207031 808.558594 521.273438 C 805.78125 524.335938 802.929688 527.332031 800.003906 530.257812 C 797.082031 533.183594 794.085938 536.035156 791.019531 538.8125 C 787.957031 541.589844 784.824219 544.289062 781.625 546.914062 C 778.429688 549.539062 775.167969 552.082031 771.847656 554.546875 C 768.523438 557.011719 765.144531 559.390625 761.703125 561.691406 C 758.265625 563.988281 754.769531 566.199219 751.222656 568.328125 C 747.675781 570.453125 744.078125 572.492188 740.429688 574.441406 C 736.78125 576.390625 733.085938 578.25 729.347656 580.019531 C 725.609375 581.789062 721.828125 583.464844 718.007812 585.046875 C 714.183594 586.628906 710.328125 588.117188 706.433594 589.511719 C 702.539062 590.90625 698.609375 592.203125 694.652344 593.402344 C 690.695312 594.601562 686.707031 595.707031 682.695312 596.710938 C 678.683594 597.714844 674.648438 598.621094 670.59375 599.429688 C 666.535156 600.238281 662.460938 600.945312 658.371094 601.550781 C 654.277344 602.15625 650.171875 602.664062 646.058594 603.070312 C 641.941406 603.472656 637.816406 603.777344 633.683594 603.980469 C 629.554688 604.183594 625.417969 604.285156 621.28125 604.285156 C 617.144531 604.285156 613.011719 604.183594 608.882812 603.980469 C 604.75 603.777344 600.625 603.472656 596.507812 603.070312 C 592.390625 602.664062 588.289062 602.15625 584.195312 601.550781 C 580.105469 600.945312 576.03125 600.238281 571.972656 599.429688 C 567.917969 598.621094 563.882812 597.714844 559.871094 596.710938 C 555.855469 595.707031 551.871094 594.601562 547.914062 593.402344 C 543.953125 592.203125 540.027344 590.90625 536.132812 589.511719 C 532.238281 588.117188 528.378906 586.628906 524.558594 585.046875 C 520.738281 583.464844 516.957031 581.789062 513.21875 580.019531 C 509.476562 578.25 505.785156 576.390625 502.136719 574.441406 C 498.488281 572.492188 494.890625 570.453125 491.34375 568.328125 C 487.792969 566.199219 484.300781 563.988281 480.863281 561.691406 C 477.421875 559.390625 474.042969 557.011719 470.71875 554.546875 C 467.398438 552.082031 464.136719 549.539062 460.9375 546.914062 C 457.742188 544.289062 454.609375 541.589844 451.546875 538.8125 C 448.480469 536.035156 445.484375 533.183594 442.5625 530.257812 C 439.636719 527.332031 436.785156 524.335938 434.007812 521.273438 C 431.226562 518.207031 428.527344 515.074219 425.902344 511.878906 C 423.277344 508.679688 420.734375 505.421875 418.269531 502.097656 C 415.808594 498.777344 413.425781 495.394531 411.128906 491.957031 C 408.828125 488.515625 406.617188 485.023438 404.492188 481.476562 C 402.363281 477.925781 400.324219 474.328125 398.375 470.679688 C 396.425781 467.03125 394.566406 463.339844 392.796875 459.601562 C 391.03125 455.859375 389.355469 452.078125 387.769531 448.257812 C 386.1875 444.4375 384.699219 440.578125 383.304688 436.683594 C 381.914062 432.789062 380.617188 428.863281 379.414062 424.90625 C 378.214844 420.945312 377.109375 416.960938 376.105469 412.949219 C 375.101562 408.9375 374.195312 404.902344 373.386719 400.84375 C 372.582031 396.785156 371.875 392.710938 371.265625 388.621094 C 370.660156 384.53125 370.152344 380.425781 369.75 376.308594 C 369.34375 372.191406 369.039062 368.066406 368.835938 363.9375 C 368.632812 359.804688 368.53125 355.671875 368.53125 351.535156 C 368.53125 347.398438 368.632812 343.265625 368.835938 339.132812 C 369.039062 335 369.34375 330.878906 369.75 326.761719 C 370.152344 322.644531 370.660156 318.539062 371.265625 314.449219 C 371.875 310.355469 372.582031 306.28125 373.386719 302.226562 C 374.195312 298.167969 375.101562 294.132812 376.105469 290.121094 C 377.109375 286.109375 378.214844 282.125 379.414062 278.164062 C 380.617188 274.207031 381.914062 270.28125 383.304688 266.386719 C 384.699219 262.492188 386.1875 258.632812 387.769531 254.8125 C 389.355469 250.988281 391.03125 247.207031 392.796875 243.46875 C 394.566406 239.730469 396.425781 236.035156 398.375 232.386719 C 400.324219 228.742188 402.363281 225.140625 404.492188 221.59375 C 406.617188 218.046875 408.828125 214.554688 411.128906 211.113281 C 413.425781 207.675781 415.808594 204.292969 418.269531 200.972656 C 420.734375 197.648438 423.277344 194.386719 425.902344 191.191406 C 428.527344 187.992188 431.226562 184.863281 434.007812 181.796875 C 436.785156 178.730469 439.636719 175.738281 442.5625 172.8125 C 445.484375 169.886719 448.480469 167.035156 451.546875 164.257812 C 454.609375 161.480469 457.742188 158.777344 460.9375 156.15625 C 464.136719 153.53125 467.398438 150.988281 470.71875 148.523438 C 474.042969 146.058594 477.421875 143.675781 480.863281 141.378906 C 484.300781 139.082031 487.792969 136.867188 491.34375 134.742188 C 494.890625 132.617188 498.488281 130.578125 502.136719 128.628906 C 505.785156 126.679688 509.476562 124.820312 513.21875 123.050781 C 516.957031 121.28125 520.738281 119.605469 524.558594 118.023438 C 528.378906 116.441406 532.238281 114.953125 536.132812 113.558594 C 540.027344 112.164062 543.953125 110.867188 547.914062 109.667969 C 551.871094 108.464844 555.855469 107.363281 559.871094 106.359375 C 563.882812 105.351562 567.917969 104.445312 571.972656 103.640625 C 576.03125 102.832031 580.105469 102.125 584.195312 101.519531 C 588.289062 100.910156 592.390625 100.40625 596.507812 100 C 600.625 99.59375 604.75 99.289062 608.882812 99.085938 C 613.011719 98.882812 617.144531 98.785156 621.28125 98.785156 C 625.417969 98.785156 629.554688 98.882812 633.683594 99.085938 C 637.816406 99.289062 641.941406 99.59375 646.058594 100 C 650.171875 100.40625 654.277344 100.910156 658.371094 101.519531 C 662.460938 102.125 666.535156 102.832031 670.59375 103.640625 C 674.648438 104.445312 678.683594 105.351562 682.695312 106.359375 C 686.707031 107.363281 690.695312 108.464844 694.652344 109.667969 C 698.609375 110.867188 702.539062 112.164062 706.433594 113.558594 C 710.328125 114.953125 714.183594 116.441406 718.007812 118.023438 C 721.828125 119.605469 725.609375 121.28125 729.347656 123.050781 C 733.085938 124.820312 736.78125 126.679688 740.429688 128.628906 C 744.078125 130.578125 747.675781 132.617188 751.222656 134.742188 C 754.769531 136.867188 758.265625 139.082031 761.703125 141.378906 C 765.144531 143.675781 768.523438 146.058594 771.847656 148.523438 C 775.167969 150.988281 778.429688 153.53125 781.625 156.15625 C 784.824219 158.777344 787.957031 161.480469 791.019531 164.257812 C 794.085938 167.035156 797.082031 169.886719 800.003906 172.8125 C 802.929688 175.738281 805.78125 178.730469 808.558594 181.796875 C 811.335938 184.863281 814.039062 187.992188 816.664062 191.191406 C 819.285156 194.386719 821.832031 197.648438 824.292969 200.972656 C 826.757812 204.292969 829.140625 207.675781 831.4375 211.113281 C 833.734375 214.554688 835.949219 218.046875 838.074219 221.59375 C 840.203125 225.140625 842.238281 228.742188 844.191406 232.386719 C 846.140625 236.035156 848 239.730469 849.765625 243.46875 C 851.535156 247.207031 853.210938 250.988281 854.792969 254.8125 C 856.378906 258.632812 857.867188 262.492188 859.257812 266.386719 C 860.652344 270.28125 861.949219 274.207031 863.152344 278.164062 C 864.351562 282.125 865.453125 286.109375 866.460938 290.121094 C 867.464844 294.132812 868.371094 298.167969 869.179688 302.226562 C 869.984375 306.28125 870.691406 310.355469 871.296875 314.449219 C 871.90625 318.539062 872.410156 322.644531 872.816406 326.761719 C 873.222656 330.878906 873.527344 335 873.730469 339.132812 C 873.933594 343.265625 874.035156 347.398438 874.035156 351.535156 Z M 874.035156 351.535156 " fill-opacity="1" fill-rule="nonzero"/><path fill="#e4c8e4" d="M 873.222656 327.964844 C 874.035156 335.28125 874.035156 343.40625 874.035156 351.535156 C 874.035156 491.320312 761.066406 604.285156 621.28125 604.285156 C 562.769531 604.285156 509.128906 584.78125 466.054688 551.460938 C 465.242188 543.332031 465.242188 535.207031 465.242188 527.078125 C 465.242188 387.292969 578.210938 274.328125 717.996094 274.328125 C 776.507812 274.328125 830.148438 294.644531 873.222656 327.964844 Z M 873.222656 327.964844 " fill-opacity="1" fill-rule="evenodd"/><g clip-path="url(#018662bca4)"><path fill="#ffffff" d="M -60.550781 296.628906 L 1265.78125 296.628906 L 1265.78125 393.824219 L -60.550781 393.824219 Z M -60.550781 296.628906 " fill-opacity="1" fill-rule="nonzero"/></g><g fill="#8b008b" fill-opacity="0.4"><g transform="translate(324.4482, 377.363097)"><g><path d="M 4.714844 -9.433594 L 14.148438 -9.433594 L 14.148438 -56.59375 L 4.714844 -56.59375 Z M 14.148438 0 L 42.445312 0 L 42.445312 -9.433594 L 14.148438 -9.433594 Z M 14.148438 -56.59375 L 42.445312 -56.59375 L 42.445312 -66.027344 L 14.148438 -66.027344 Z M 42.445312 -9.433594 L 51.878906 -9.433594 L 51.878906 -18.863281 L 42.445312 -18.863281 Z M 42.445312 -47.164062 L 51.878906 -47.164062 L 51.878906 -56.59375 L 42.445312 -56.59375 Z M 42.445312 -47.164062 "/></g></g></g><g fill="#8b008b" fill-opacity="0.4"><g transform="translate(381.031034, 377.363097)"><g><path d="M 42.445312 -9.433594 L 14.148438 -9.433594 L 14.148438 0 L 42.445312 0 Z M 4.714844 -9.433594 L 14.148438 -9.433594 L 14.148438 -66.027344 L 4.714844 -66.027344 Z M 42.445312 -9.433594 L 51.878906 -9.433594 L 51.878906 -66.027344 L 42.445312 -66.027344 Z M 42.445312 -9.433594 "/></g></g></g><g fill="#8b008b" fill-opacity="0.4"><g transform="translate(437.613869, 377.363097)"><g><path d="M 42.445312 0 L 51.878906 0 L 51.878906 -66.027344 L 42.445312 -66.027344 L 42.445312 -56.59375 L 33.015625 -56.59375 L 33.015625 -47.164062 L 42.445312 -47.164062 Z M 4.714844 0 L 14.148438 0 L 14.148438 -47.164062 L 23.582031 -47.164062 L 23.582031 -56.59375 L 14.148438 -56.59375 L 14.148438 -66.027344 L 4.714844 -66.027344 Z M 23.582031 -37.730469 L 33.015625 -37.730469 L 33.015625 -47.164062 L 23.582031 -47.164062 Z M 23.582031 -37.730469 "/></g></g></g><g fill="#8b008b" fill-opacity="0.4"><g transform="translate(494.196703, 377.363097)"><g><path d="M 4.714844 0 L 42.445312 0 L 42.445312 -9.433594 L 14.148438 -9.433594 L 14.148438 -28.296875 L 42.445312 -28.296875 L 42.445312 -37.730469 L 14.148438 -37.730469 L 14.148438 -56.59375 L 42.445312 -56.59375 L 42.445312 -66.027344 L 4.714844 -66.027344 Z M 42.445312 -9.433594 L 51.878906 -9.433594 L 51.878906 -28.296875 L 42.445312 -28.296875 Z M 42.445312 -37.730469 L 51.878906 -37.730469 L 51.878906 -56.59375 L 42.445312 -56.59375 Z M 42.445312 -37.730469 "/></g></g></g><g fill="#8b008b" fill-opacity="0.4"><g transform="translate(550.779538, 377.363097)"><g><path d="M 42.445312 -9.433594 L 14.148438 -9.433594 L 14.148438 0 L 42.445312 0 Z M 4.714844 -9.433594 L 14.148438 -9.433594 L 14.148438 -66.027344 L 4.714844 -66.027344 Z M 42.445312 -9.433594 L 51.878906 -9.433594 L 51.878906 -66.027344 L 42.445312 -66.027344 Z M 42.445312 -9.433594 "/></g></g></g><g fill="#8b008b" fill-opacity="0.4"><g transform="translate(607.362372, 377.363097)"><g><path d="M 4.714844 -9.433594 L 14.148438 -9.433594 L 14.148438 -56.59375 L 4.714844 -56.59375 Z M 14.148438 0 L 42.445312 0 L 42.445312 -9.433594 L 14.148438 -9.433594 Z M 14.148438 -56.59375 L 42.445312 -56.59375 L 42.445312 -66.027344 L 14.148438 -66.027344 Z M 42.445312 -9.433594 L 51.878906 -9.433594 L 51.878906 -18.863281 L 42.445312 -18.863281 Z M 42.445312 -47.164062 L 51.878906 -47.164062 L 51.878906 -56.59375 L 42.445312 -56.59375 Z M 42.445312 -47.164062 "/></g></g></g><g fill="#8b008b" fill-opacity="0.4"><g transform="translate(663.945207, 377.363097)"><g><path d="M 4.714844 0 L 14.148438 0 L 14.148438 -18.863281 L 42.445312 -18.863281 L 42.445312 0 L 51.878906 0 L 51.878906 -56.59375 L 42.445312 -56.59375 L 42.445312 -28.296875 L 14.148438 -28.296875 L 14.148438 -56.59375 L 4.714844 -56.59375 Z M 14.148438 -56.59375 L 42.445312 -56.59375 L 42.445312 -66.027344 L 14.148438 -66.027344 Z M 14.148438 -56.59375 "/></g></g></g><g fill="#8b008b" fill-opacity="0.4"><g transform="translate(720.528041, 377.363097)"><g/></g></g><g fill="#8b008b" fill-opacity="0.4"><g transform="translate(744.104208, 377.363097)"><g><path d="M 4.714844 0 L 42.445312 0 L 42.445312 -9.433594 L 14.148438 -9.433594 L 14.148438 -56.59375 L 42.445312 -56.59375 L 42.445312 -66.027344 L 4.714844 -66.027344 Z M 42.445312 -9.433594 L 51.878906 -9.433594 L 51.878906 -56.59375 L 42.445312 -56.59375 Z M 42.445312 -9.433594 "/></g></g></g><g fill="#8b008b" fill-opacity="0.4"><g transform="translate(800.687042, 377.363097)"><g><path d="M 4.714844 0 L 51.785156 0 L 51.785156 -9.433594 L 14.148438 -9.433594 L 14.148438 -28.296875 L 42.445312 -28.296875 L 42.445312 -37.730469 L 14.148438 -37.730469 L 14.148438 -56.59375 L 51.878906 -56.59375 L 51.878906 -66.027344 L 4.714844 -66.027344 Z M 4.714844 0 "/></g></g></g><g fill="#8b008b" fill-opacity="0.4"><g transform="translate(857.269877, 377.363097)"><g><path d="M 42.445312 -37.730469 L 33.015625 -37.730469 L 33.015625 -18.863281 L 42.445312 -18.863281 Z M 4.714844 -37.730469 L 14.148438 -37.730469 L 14.148438 -66.027344 L 4.714844 -66.027344 Z M 14.148438 -18.863281 L 23.582031 -18.863281 L 23.582031 -37.730469 L 14.148438 -37.730469 Z M 23.582031 0 L 33.015625 0 L 33.015625 -18.863281 L 23.582031 -18.863281 Z M 42.445312 -37.730469 L 51.878906 -37.730469 L 51.878906 -66.027344 L 42.445312 -66.027344 Z M 42.445312 -37.730469 "/></g></g></g><g fill="#8b008b" fill-opacity="1"><g transform="translate(320.279367, 373.194279)"><g><path d="M 4.714844 -9.433594 L 14.148438 -9.433594 L 14.148438 -56.59375 L 4.714844 -56.59375 Z M 14.148438 0 L 42.445312 0 L 42.445312 -9.433594 L 14.148438 -9.433594 Z M 14.148438 -56.59375 L 42.445312 -56.59375 L 42.445312 -66.027344 L 14.148438 -66.027344 Z M 42.445312 -9.433594 L 51.878906 -9.433594 L 51.878906 -18.863281 L 42.445312 -18.863281 Z M 42.445312 -47.164062 L 51.878906 -47.164062 L 51.878906 -56.59375 L 42.445312 -56.59375 Z M 42.445312 -47.164062 "/></g></g></g><g fill="#8b008b" fill-opacity="1"><g transform="translate(376.862202, 373.194279)"><g><path d="M 42.445312 -9.433594 L 14.148438 -9.433594 L 14.148438 0 L 42.445312 0 Z M 4.714844 -9.433594 L 14.148438 -9.433594 L 14.148438 -66.027344 L 4.714844 -66.027344 Z M 42.445312 -9.433594 L 51.878906 -9.433594 L 51.878906 -66.027344 L 42.445312 -66.027344 Z M 42.445312 -9.433594 "/></g></g></g><g fill="#8b008b" fill-opacity="1"><g transform="translate(433.445036, 373.194279)"><g><path d="M 42.445312 0 L 51.878906 0 L 51.878906 -66.027344 L 42.445312 -66.027344 L 42.445312 -56.59375 L 33.015625 -56.59375 L 33.015625 -47.164062 L 42.445312 -47.164062 Z M 4.714844 0 L 14.148438 0 L 14.148438 -47.164062 L 23.582031 -47.164062 L 23.582031 -56.59375 L 14.148438 -56.59375 L 14.148438 -66.027344 L 4.714844 -66.027344 Z M 23.582031 -37.730469 L 33.015625 -37.730469 L 33.015625 -47.164062 L 23.582031 -47.164062 Z M 23.582031 -37.730469 "/></g></g></g><g fill="#8b008b" fill-opacity="1"><g transform="translate(490.027871, 373.194279)"><g><path d="M 4.714844 0 L 42.445312 0 L 42.445312 -9.433594 L 14.148438 -9.433594 L 14.148438 -28.296875 L 42.445312 -28.296875 L 42.445312 -37.730469 L 14.148438 -37.730469 L 14.148438 -56.59375 L 42.445312 -56.59375 L 42.445312 -66.027344 L 4.714844 -66.027344 Z M 42.445312 -9.433594 L 51.878906 -9.433594 L 51.878906 -28.296875 L 42.445312 -28.296875 Z M 42.445312 -37.730469 L 51.878906 -37.730469 L 51.878906 -56.59375 L 42.445312 -56.59375 Z M 42.445312 -37.730469 "/></g></g></g><g fill="#8b008b" fill-opacity="1"><g transform="translate(546.610706, 373.194279)"><g><path d="M 42.445312 -9.433594 L 14.148438 -9.433594 L 14.148438 0 L 42.445312 0 Z M 4.714844 -9.433594 L 14.148438 -9.433594 L 14.148438 -66.027344 L 4.714844 -66.027344 Z M 42.445312 -9.433594 L 51.878906 -9.433594 L 51.878906 -66.027344 L 42.445312 -66.027344 Z M 42.445312 -9.433594 "/></g></g></g><g fill="#8b008b" fill-opacity="1"><g transform="translate(603.19354, 373.194279)"><g><path d="M 4.714844 -9.433594 L 14.148438 -9.433594 L 14.148438 -56.59375 L 4.714844 -56.59375 Z M 14.148438 0 L 42.445312 0 L 42.445312 -9.433594 L 14.148438 -9.433594 Z M 14.148438 -56.59375 L 42.445312 -56.59375 L 42.445312 -66.027344 L 14.148438 -66.027344 Z M 42.445312 -9.433594 L 51.878906 -9.433594 L 51.878906 -18.863281 L 42.445312 -18.863281 Z M 42.445312 -47.164062 L 51.878906 -47.164062 L 51.878906 -56.59375 L 42.445312 -56.59375 Z M 42.445312 -47.164062 "/></g></g></g><g fill="#8b008b" fill-opacity="1"><g transform="translate(659.776375, 373.194279)"><g><path d="M 4.714844 0 L 14.148438 0 L 14.148438 -18.863281 L 42.445312 -18.863281 L 42.445312 0 L 51.878906 0 L 51.878906 -56.59375 L 42.445312 -56.59375 L 42.445312 -28.296875 L 14.148438 -28.296875 L 14.148438 -56.59375 L 4.714844 -56.59375 Z M 14.148438 -56.59375 L 42.445312 -56.59375 L 42.445312 -66.027344 L 14.148438 -66.027344 Z M 14.148438 -56.59375 "/></g></g></g><g fill="#8b008b" fill-opacity="1"><g transform="translate(716.359209, 373.194279)"><g/></g></g><g fill="#8b008b" fill-opacity="1"><g transform="translate(739.935376, 373.194279)"><g><path d="M 4.714844 0 L 42.445312 0 L 42.445312 -9.433594 L 14.148438 -9.433594 L 14.148438 -56.59375 L 42.445312 -56.59375 L 42.445312 -66.027344 L 4.714844 -66.027344 Z M 42.445312 -9.433594 L 51.878906 -9.433594 L 51.878906 -56.59375 L 42.445312 -56.59375 Z M 42.445312 -9.433594 "/></g></g></g><g fill="#8b008b" fill-opacity="1"><g transform="translate(796.51821, 373.194279)"><g><path d="M 4.714844 0 L 51.785156 0 L 51.785156 -9.433594 L 14.148438 -9.433594 L 14.148438 -28.296875 L 42.445312 -28.296875 L 42.445312 -37.730469 L 14.148438 -37.730469 L 14.148438 -56.59375 L 51.878906 -56.59375 L 51.878906 -66.027344 L 4.714844 -66.027344 Z M 4.714844 0 "/></g></g></g><g fill="#8b008b" fill-opacity="1"><g transform="translate(853.101045, 373.194279)"><g><path d="M 42.445312 -37.730469 L 33.015625 -37.730469 L 33.015625 -18.863281 L 42.445312 -18.863281 Z M 4.714844 -37.730469 L 14.148438 -37.730469 L 14.148438 -66.027344 L 4.714844 -66.027344 Z M 14.148438 -18.863281 L 23.582031 -18.863281 L 23.582031 -37.730469 L 14.148438 -37.730469 Z M 23.582031 0 L 33.015625 0 L 33.015625 -18.863281 L 23.582031 -18.863281 Z M 42.445312 -37.730469 L 51.878906 -37.730469 L 51.878906 -66.027344 L 42.445312 -66.027344 Z M 42.445312 -37.730469 "/></g></g></g></svg>